<?xml version="1.0" encoding="utf-8"?>
<svg xmlns="http://www.w3.org/2000/svg" viewBox="80.4637 92.7328 314.43 67.97" width="314.43px" height="67.97px"><defs><linearGradient gradientUnits="userSpaceOnUse" x1="17.41" y1="1.9" x2="17.41" y2="53.62" id="gradient-0" spreadMethod="reflect" gradientTransform="matrix(-0.03898, 0.999235, -2.296437, -0.089582, 141.223587, 41.026716)"><stop offset="0" style="stop-color: color(srgb-linear 0.791 0.283 0.418);"/><stop offset="1" style="stop-color: color(srgb-linear 0.109 0.051 0.038);"/></linearGradient><linearGradient gradientUnits="userSpaceOnUse" x1="59.82" y1="14.38" x2="59.82" y2="54.6" id="gradient-1" spreadMethod="reflect" gradientTransform="matrix(0.048343, 0.998827, -2.855723, 0.138217, 170.109832, -12.351902)"><stop offset="0" style="stop-color: color(srgb-linear 0.776 0.283 0.418);"/><stop offset="1" style="stop-color: color(srgb-linear 0.109 0.051 0.038);"/></linearGradient><linearGradient gradientUnits="userSpaceOnUse" x1="97.175" y1="15.36" x2="97.175" y2="53.61" id="gradient-2" spreadMethod="reflect" gradientTransform="matrix(-0.004759, 0.999984, -3.108798, -0.014795, 183.511114, -40.689893)"><stop offset="0" style="stop-color: color(srgb-linear 0.753 0.283 0.413);"/><stop offset="1" style="stop-color: color(srgb-linear 0.109 0.051 0.038);"/></linearGradient><linearGradient gradientUnits="userSpaceOnUse" x1="194.72" y1="15.36" x2="194.72" y2="53.61" id="gradient-3" spreadMethod="reflect" gradientTransform="matrix(-0.004381, -0.999984, 4.336674, -0.019001, 66.526683, 249.611111)"><stop offset="0" style="stop-color: color(srgb-linear 0.768 0.283 0.418);"/><stop offset="1" style="stop-color: color(srgb-linear 0.109 0.051 0.038);"/></linearGradient><linearGradient gradientUnits="userSpaceOnUse" x1="252.11" y1="14.38" x2="252.11" y2="54.59" id="gradient-4" spreadMethod="reflect" gradientTransform="matrix(0.035562, -0.999363, 4.037654, 0.143674, 67.840431, 302.019018)"><stop offset="0" style="stop-color: color(srgb-linear 0.784 0.283 0.418);"/><stop offset="1" style="stop-color: color(srgb-linear 0.109 0.051 0.038);"/></linearGradient><linearGradient gradientUnits="userSpaceOnUse" x1="297.73" y1="-0.01" x2="297.73" y2="53.61" id="gradient-5" spreadMethod="reflect" gradientTransform="matrix(0.005735, -0.999978, 2.99761, 0.017192, 135.320553, 347.435102)"><stop offset="0" style="stop-color: color(srgb-linear 0.768 0.283 0.413);"/><stop offset="1" style="stop-color: color(srgb-linear 0.109 0.051 0.038);"/></linearGradient><linearGradient gradientUnits="userSpaceOnUse" x1="144.765" y1="17.37" x2="144.765" y2="36.735" id="gradient-8" spreadMethod="reflect" gradientTransform="matrix(0.021438, -0.999765, 8.305732, 0.178095, -10.98639, 171.957466)"><stop offset="0" style="stop-color: color(srgb-linear 0.738 0.283 0.407);"/><stop offset="1" style="stop-color: color(srgb-linear 0 0.28175 0.22354)"/></linearGradient><linearGradient gradientUnits="userSpaceOnUse" x1="126.295" y1="13.65" x2="126.295" y2="35.12" id="gradient-10" spreadMethod="reflect" gradientTransform="matrix(-0.043512, 0.999048, -5.597062, -0.243762, 217.635838, -84.41945)"><stop offset="0" style="stop-color: color(srgb-linear 0.905 0.275 0.44);"/><stop offset="1" style="stop-color: color(srgb-linear 0 0.28175 0.22354)"/></linearGradient></defs><g id="object-7" transform="matrix(1, 0, 0, 0.9999999999999999, 80.46372690381749, 92.74284785186111)"><path d="M0,1.9h5.27v19.41L25.94,1.9h6.94L8.05,25.1l26.77,28.51h-6.88L5.27,29.53v24.09H0V1.9Z" style="fill-rule: nonzero; fill: url(&quot;#gradient-0&quot;); paint-order: stroke;" id="object-0"/><path d="M59.84,14.38c5.89,0,10.78,2.13,14.65,6.4,3.52,3.89,5.28,8.5,5.28,13.82s-1.86,10.01-5.58,14.01c-3.72,4-8.51,5.99-14.35,5.99s-10.67-2-14.39-5.99c-3.72-4-5.58-8.67-5.58-14.01s1.76-9.89,5.28-13.78c3.87-4.29,8.77-6.43,14.69-6.43ZM59.82,19.2c-4.09,0-7.61,1.51-10.55,4.54-2.94,3.02-4.41,6.68-4.41,10.97,0,2.77.67,5.34,2.01,7.73,1.34,2.39,3.15,4.24,5.43,5.54,2.28,1.3,4.79,1.95,7.51,1.95s5.23-.65,7.51-1.95c2.28-1.3,4.09-3.15,5.43-5.54,1.34-2.39,2.01-4.97,2.01-7.73,0-4.29-1.48-7.95-4.43-10.97-2.95-3.02-6.46-4.54-10.53-4.54Z" style="fill-rule: nonzero; fill: url(&quot;#gradient-1&quot;); paint-order: stroke;" id="object-1"/><path d="M84.59,15.36h25.17v4.25h-10.12v34h-4.92V19.62h-10.12v-4.25Z" style="fill-rule: nonzero; fill: url(&quot;#gradient-2&quot;); paint-order: stroke;" id="object-2"/><path d="M223.3,53.61h-57.16V15.36h4.92v33.61h21.09V15.36h5.03v33.61h21.09V15.36h5.03v38.25Z" style="fill-rule: nonzero; fill: url(&quot;#gradient-3&quot;); paint-order: stroke;" id="object-3"/><path d="M266.44,40.92l4.15,2.18c-1.36,2.67-2.93,4.83-4.71,6.47-1.78,1.64-3.79,2.89-6.02,3.74-2.23.86-4.75,1.28-7.57,1.28-6.24,0-11.12-2.04-14.64-6.13-3.52-4.09-5.28-8.71-5.28-13.87,0-4.85,1.49-9.18,4.47-12.97,3.78-4.83,8.83-7.24,15.17-7.24s11.73,2.47,15.62,7.42c2.77,3.49,4.18,7.85,4.22,13.08h-34.42c.09,4.44,1.51,8.08,4.26,10.93,2.75,2.84,6.14,4.26,10.17,4.26,1.95,0,3.84-.34,5.68-1.02,1.84-.68,3.41-1.58,4.7-2.7,1.29-1.12,2.69-2.93,4.19-5.43ZM266.44,30.62c-.66-2.62-1.61-4.72-2.87-6.29-1.26-1.57-2.92-2.84-4.98-3.8-2.07-.96-4.24-1.44-6.51-1.44-3.75,0-6.98,1.21-9.68,3.62-1.97,1.76-3.46,4.39-4.47,7.91h28.51Z" style="fill-rule: nonzero; fill: url(&quot;#gradient-4&quot;); paint-order: stroke;" id="object-4"/><path d="M285.95,15.36v28.3l28.09-28.3h.39v38.25h-4.92v-28.04l-27.88,28.04h-.6V15.36h4.92ZM285.24,0h4.64c.8,1.22,1.86,2.13,3.2,2.74,1.34.61,2.93.91,4.78.91s3.39-.27,4.54-.81c1.15-.54,2.24-1.49,3.27-2.85h4.5c-.52,2.11-1.83,3.87-3.96,5.29-2.12,1.42-4.92,2.13-8.38,2.13s-6.26-.7-8.44-2.09c-2.18-1.39-3.56-3.17-4.15-5.33Z" style="fill-rule: nonzero; fill: url(&quot;#gradient-5&quot;); paint-order: stroke;" id="object-5"/><g id="object-6"><path d="M137.61,14.38c5.89,0,10.78,2.13,14.65,6.4,3.52,3.89,5.28,8.5,5.28,13.82s-1.86,10.01-5.58,14.01c-3.72,4-8.51,5.99-14.35,5.99s-10.67-2-14.39-5.99c-3.72-4-5.58-8.67-5.58-14.01s1.76-9.89,5.28-13.78c3.87-4.29,8.77-6.43,14.69-6.43ZM137.59,19.2c-4.09,0-7.61,1.51-10.55,4.54-2.94,3.02-4.41,6.68-4.41,10.97,0,2.77.67,5.34,2.01,7.73,1.34,2.39,3.15,4.24,5.43,5.54,2.28,1.3,4.79,1.95,7.51,1.95s5.23-.65,7.51-1.95c2.28-1.3,4.09-3.15,5.43-5.54,1.34-2.39,2.01-4.97,2.01-7.73,0-4.29-1.48-7.95-4.43-10.97-2.95-3.02-6.46-4.54-10.53-4.54Z" style="fill-rule: nonzero; paint-order: stroke; fill: color(srgb-linear 0.905 0.275 0.44);"/><path class="cls-1" d="M124.1,22.25c-.85,13.45,16.11,24.96,25.53,25.02" style="stroke-miterlimit: 10; stroke-width: 4px; fill-rule: nonzero; paint-order: stroke; fill: color(srgb-linear 0.905 0.275 0.44); fill-opacity: 0; stroke: rgb(244, 143, 177);"/><path class="cls-1" d="M133.53,17.37c1.05,9.32,15.75,20.38,22.47,19.29" style="stroke-miterlimit: 10; stroke-width: 4px; fill-rule: nonzero; fill: url(&quot;#gradient-8&quot;); paint-order: stroke; fill-opacity: 0; stroke: rgb(244, 143, 177);"/><path d="M124.49,48.76c6.19,3.17,12.08,6.03,17.68,10.12,2.21,1.63,2.89,4.6.54,6.53-1.58,1.29-3.7,1.19-5.33.95-4.97-.75-9.04-2.92-13.73-3.31-2.59-.16-3.18,1.96-3.95,4.85,0,0-.4.06-.4.06-.33-2.03-.44-4.36.9-6.1,3.96-4.41,13.03-.15,17.88.67.79.09,1.81.43,2.43-.15-.01.02-.02.04-.02.05-.35-.66-1.28-1.35-1.91-1.89-4.82-3.77-9.85-7.32-14.36-11.48,0,0,.27-.3.27-.3h0Z" style="fill-rule: nonzero; paint-order: stroke; fill: color(srgb-linear 0.905 0.275 0.44);"/><g><polyline class="cls-1" points="132.96 17.93 119.67 13.65 119.63 35.12" style="stroke-miterlimit: 10; stroke-width: 4px; fill-rule: nonzero; fill: url(&quot;#gradient-10&quot;); paint-order: stroke; fill-opacity: 0; stroke: rgb(244, 143, 177);"/><polyline class="cls-1" points="142.18 17.93 155.46 13.65 155.5 35.12" style="stroke-miterlimit: 10; stroke-width: 4px; fill-rule: nonzero; paint-order: fill; fill: currentcolor; fill-opacity: 0; stroke: rgb(244, 143, 177);"/></g></g></g></svg>