<?xml version="1.0" encoding="utf-8"?>
<!DOCTYPE svg PUBLIC "-//W3C//DTD SVG 1.0//EN" "http://www.w3.org/TR/2001/REC-SVG-20010904/DTD/svg10.dtd">
<svg version="1.0" xmlns="http://www.w3.org/2000/svg" width="330px" height="78px" viewBox="0 0 330 78" preserveAspectRatio="xMidYMid meet">
   <defs>
      <linearGradient id="lg0" gradientUnits="userSpaceOnUse" x1="2.5757575%" y1="49.358974%" x2="96.666664%" y2="49.358974%">
         <stop offset="0%" style="stop-color:rgb(93,64,55);"></stop>
         <stop offset="50%" style="stop-color:rgb(244,143,177);"></stop>
         <stop offset="100%" style="stop-color:rgb(93,64,55);"></stop>
      </linearGradient>
   </defs>
 <g fill="#000000">
  <path fill="url(#lg0)" d="M 0 39 l 0 -39 165 0 165 0 0 39 0 39 -165 0 -165 0 0 -39 z "/>
 </g>
 <g fill="#d7ccc8">
  <path d="M 0 39 l 0 -39 165 0 165 0 0 39 0 39 -165 0 -165 0 0 -39 z  m 127 32.55 c 0 -0.50 0.50 -1.55 1.10 -2.30 1 -1.30 1.25 -1.35 3.85 -1.05 1.55 0.15 4.20 0.75 5.85 1.25 7.15 2.30 10.85 2.30 12.50 0.15 0.85 -1.10 0.85 -3.10 -0.05 -4.25 -0.90 -1.25 -6.80 -5.35 -7.60 -5.35 -0.35 0 -0.65 -0.25 -0.65 -0.50 0 -0.30 0.50 -0.40 1.15 -0.25 1.75 0.45 7.85 -0.70 10.30 -1.90 5.30 -2.65 9.40 -8.20 10.55 -14.30 0.70 -3.85 0.65 -26.55 -0.05 -26.55 -0.30 0 -3.45 0.90 -7 2 -5.85 1.80 -6.65 1.90 -9.30 1.50 -1.75 -0.30 -4.10 -0.30 -5.90 0 -2.75 0.40 -3.55 0.25 -9.65 -1.60 -3.65 -1.10 -6.75 -1.95 -6.85 -1.85 -0.10 0.15 -0.25 6.15 -0.30 13.45 -0.15 12.80 -0.10 13.35 1.05 16.25 1.80 4.75 3.90 7.10 11.25 12.75 8.20 6.25 10.25 7.95 10.25 8.50 0 0.55 -2.80 0.15 -7.25 -1 -7.10 -1.85 -11 -1.75 -12.90 0.40 -0.95 1.10 -1.70 5.60 -0.90 5.60 0.30 0 0.55 -0.40 0.55 -0.95 z  M86.60 39.50 C 86.60 28.55 77.70 19.70 66.80 19.70 55.85 19.70 47 28.55 47 39.50 47 50.45 55.85 59.30 66.80 59.30 77.70 59.30 86.60 50.45 86.60 39.50 Z M72.75 58.40  m 194.45 -0.45 c 3.20 -1.25 7.75 -5.25 9.45 -8.30 0.90 -1.60 0.90 -1.60 -1.10 -2.65 -2 -1 -2 -1 -3.55 1.25 -3.65 5.30 -11.30 8.05 -17.45 6.25 -4.75 -1.35 -9.30 -6.85 -9.90 -12.05 -0.30 -2.45 -0.30 -2.45 16.90 -2.55 17.20 -0.15 17.20 -0.15 17.05 -2.15 -0.25 -3.15 -1.45 -6.80 -3.05 -9.35 -1.80 -2.85 -6.50 -6.60 -9.55 -7.65 -15.45 -5.35 -29.85 8.15 -25.70 24 1.90 7.45 7.20 12.75 14.20 14.25 3.50 0.70 9.35 0.25 12.70 -1.05 z  m -255.10 -11.55 l 0.15 -12.10 11.40 12.10 c 11.45 12.10 11.45 12.10 14.70 12.10 3.25 0 3.25 0 -2.40 -6.10 -3.15 -3.35 -9.10 -9.70 -13.30 -14.10 -4.15 -4.45 -7.40 -8.30 -7.25 -8.60 0.30 -0.45 17.65 -16.65 22.55 -21.05 1.80 -1.60 1.80 -1.60 -1.60 -1.65 -3.40 0 -3.40 0 -8.25 4.60 -7.90 7.50 -15.45 14.40 -15.80 14.40 -0.15 0 -0.30 -4.25 -0.30 -9.50 0 -9.50 0 -9.50 -2.50 -9.50 -2.50 0 -2.50 0 -2.50 25.75 0 25.75 0 25.75 2.50 25.75 2.50 0 2.50 0 2.60 -12.10 z  m 94.40 -4.90 l 0 -17 5 0 c 5 0 5 0 5 -2 0 -2 0 -2 -12.55 -2 -12.50 0 -12.50 0 -12.35 1.85 0.15 1.90 0.15 1.90 5.30 2.05 l 5.10 0.15 0 16.95 c 0 17 0 17 2.25 17 2.25 0 2.25 0 2.25 -17 z  m 123.50 -2 c 0 -19 0 -19 -2.25 -19 -2.25 0 -2.25 0 -2.25 16.75 l 0 16.75 -10.75 0 -10.75 0 0 -16.75 c 0 -16.75 0 -16.75 -2.25 -16.75 -2.25 0 -2.25 0 -2.35 16.65 l -0.15 16.60 -10.60 0.15 -10.65 0.10 0 -16.75 c 0 -16.75 0 -16.75 -2.35 -16.75 -2.40 0 -2.40 0 -2.30 18.85 0.10 10.40 0.15 18.95 0.15 19.05 0 0.05 12.70 0.10 28.25 0.10 l 28.25 0 0 -19 z  m 91.40 -0.10 c 0.05 -10.40 0 -18.90 -0.15 -18.90 -0.15 0 -6.55 6.35 -14.25 14.10 l -13.95 14.15 -0.05 -14.10 c 0 -14.15 0 -14.15 -2.50 -14.15 -2.50 0 -2.50 0 -2.50 18.75 0 11.70 0.20 18.75 0.50 18.75 0.25 0 6.65 -6.25 14.20 -13.85 l 13.75 -13.90 0.05 14.15 c 0 14.15 0 14.15 2.40 14 2.35 -0.15 2.35 -0.15 2.50 -19 z  m -11.45 -27.90 c 2.65 -0.70 4.95 -2.25 6.05 -4.10 0.55 -0.90 1 -1.80 1 -2 0 -0.25 -0.95 -0.40 -2.05 -0.40 -1.55 0 -2.45 0.35 -3.70 1.45 -3.65 3.20 -10.40 3 -13.45 -0.40 -0.70 -0.75 -1.55 -1.05 -3.15 -1.05 -1.15 0 -2.15 0.15 -2.15 0.40 0 1 2.10 3.60 3.80 4.65 3.65 2.25 8.80 2.80 13.65 1.45 z "/>
  <path d="M 140.75 54.55 c -7.35 -1.80 -12.20 -9.40 -11.05 -17.25 0.40 -2.55 1 -2.95 1.50 -0.95 1.20 4.65 11.40 13.90 17.95 16.20 1 0.35 1.85 0.80 1.85 1 0 1.05 -7.05 1.75 -10.25 1 z "/>
  <path d="M 151 49.10 c -7.50 -2.80 -14.40 -9.05 -16.70 -15.15 -1.30 -3.40 -0.95 -4.85 1.60 -6.80 1.20 -0.90 2.45 -1.65 2.80 -1.65 0.35 0 1.05 1 1.65 2.15 2.55 5.25 9.25 11.50 15.55 14.45 1.70 0.85 3.10 1.70 3.10 1.90 0 0.70 -1.10 3.15 -2.15 4.65 -1.10 1.60 -2.45 1.70 -5.85 0.45 z "/>
  <path d="M 156.25 37.95 c -4.35 -2.30 -9.20 -6.60 -11.60 -10.30 -0.90 -1.45 -1.65 -2.75 -1.65 -2.90 0 -0.15 1.20 -0.25 2.65 -0.25 6.25 0 12.85 6 13.70 12.50 0.35 2.35 -0.15 2.50 -3.10 0.95 z "/>
  <path d="M 128.50 24.40 c 0 -2.10 0.20 -2.90 0.70 -2.90 0.80 0 3.80 1 3.80 1.30 0 0.10 -1 1.20 -2.25 2.35 -2.25 2.20 -2.25 2.20 -2.25 -0.75 z "/>
  <path d="M 158.05 24.80 c -2.20 -2.25 -2.20 -2.25 -0.05 -2.80 1.15 -0.30 2.20 -0.45 2.35 -0.35 0.10 0.15 0.15 1.40 0.05 2.80 -0.15 2.60 -0.15 2.60 -2.35 0.35 z "/>
  <path d="M81.95 39.75 C 81.95 48.10 75.15 54.90 66.80 54.90 58.45 54.90 51.65 48.10 51.65 39.75 51.65 31.35 58.45 24.55 66.80 24.55 75.15 24.55 81.95 31.35 81.95 39.75 Z M61.50 54 "/>
  <path d="M 245.30 34.40 c 1.85 -6.10 7.60 -10.40 13.85 -10.40 6.35 0 12.20 4.30 14.05 10.40 0.35 1.10 0.35 1.10 -13.95 1.10 -14.30 0 -14.30 0 -13.95 -1.10 z "/>
 </g>
</svg>