<?xml version="1.0" standalone="no"?>
<!DOCTYPE svg PUBLIC "-//W3C//DTD SVG 20010904//EN"
 "http://www.w3.org/TR/2001/REC-SVG-20010904/DTD/svg10.dtd">
<svg version="1.0" xmlns="http://www.w3.org/2000/svg"
 width="315.000000pt" height="68.000000pt" viewBox="0 0 315.000000 68.000000"
 preserveAspectRatio="xMidYMid meet">

<g transform="translate(0.000000,68.000000) scale(0.100000,-0.100000)"
fill="#000000" stroke="none">
<path d="M2860 660 c19 -36 77 -56 152 -52 26 2 88 46 88 63 0 15 -42 10 -61
-7 -22 -20 -93 -21 -124 0 -13 9 -34 16 -45 16 -18 0 -19 -3 -10 -20z"/>
<path d="M0 400 l0 -260 25 0 25 0 0 123 1 122 117 -123 c97 -101 122 -123
145 -122 16 0 27 4 25 10 -1 5 -52 63 -113 127 -60 65 -117 126 -125 137 -13
17 -5 27 105 132 l120 113 -35 0 c-30 0 -48 -12 -135 -94 l-100 -94 -3 95 c-3
92 -3 94 -27 94 l-25 0 0 -260z"/>
<path d="M558 530 c-170 -32 -216 -261 -71 -360 118 -81 287 -7 309 135 20
136 -102 251 -238 225z m120 -70 c44 -27 76 -98 67 -149 -10 -55 -35 -89 -80
-111 -50 -24 -72 -25 -125 -4 -102 41 -120 178 -34 254 29 25 43 30 87 30 35
0 63 -7 85 -20z"/>
<path d="M2457 526 c-97 -35 -147 -129 -126 -234 31 -154 220 -211 331 -100
41 41 47 62 21 72 -12 5 -24 -2 -40 -22 -24 -32 -88 -62 -129 -62 -58 0 -134
68 -134 121 l0 29 170 0 c190 0 181 -4 158 72 -21 69 -118 139 -193 138 -11
-1 -37 -7 -58 -14z m133 -56 c35 -18 79 -74 67 -86 -2 -3 -66 -3 -141 -2
l-137 3 23 35 c26 39 79 70 121 70 15 0 46 -9 67 -20z"/>
<path d="M850 505 c0 -18 5 -25 19 -25 14 0 18 5 14 20 -5 19 0 20 100 20 92
0 106 -2 111 -17 4 -14 4 -14 3 2 -2 19 -11 20 -125 23 l-122 3 0 -26z"/>
<path d="M2182 358 l2 -173 3 167 c3 163 4 167 26 171 19 4 18 4 -5 6 l-28 1
2 -172z"/>
<path d="M2810 333 l0 -198 140 140 139 139 3 -134 3 -135 25 0 25 0 3 188 c1
103 -1 187 -5 187 -4 0 -70 -62 -145 -137 l-138 -138 0 143 0 142 -25 0 -25 0
0 -197z"/>
<path d="M994 320 c0 -96 2 -136 3 -87 2 48 2 126 0 175 -1 48 -3 8 -3 -88z"/>
</g>
</svg>
